<mxfile host="app.diagrams.net" modified="2024-08-05T20:02:00.003Z" agent="Mozilla/5.0 (Macintosh; Intel Mac OS X 10_15_7) AppleWebKit/537.36 (KHTML, like Gecko) Chrome/127.0.0.0 Safari/537.36" version="24.7.2" etag="eWem-J7LPNbF_vwO5BxO" type="github">
  <diagram name="Page-1" id="O4PFUMbj-fJUWju9OQvQ">
    <mxGraphModel>
      <root>
        <mxCell id="0" />
        <mxCell id="1" parent="0" />
      </root>
    </mxGraphModel>
  </diagram>
</mxfile>
